<?xml version="1.0" encoding="utf-8"?>
<!-- Generator: Adobe Illustrator 24.0.3, SVG Export Plug-In . SVG Version: 6.00 Build 0)  -->
<svg version="1.1" xmlns="http://www.w3.org/2000/svg" xmlns:xlink="http://www.w3.org/1999/xlink" x="0px" y="0px"
	 viewBox="0 0 595.28 841.89" style="enable-background:new 0 0 595.28 841.89;" xml:space="preserve">
<style type="text/css">
	.st0{fill:#AE5FA5;stroke:#FFFFFF;stroke-width:3;stroke-miterlimit:10;}
	.st1{fill:#A84F99;stroke:#FFFFFF;stroke-width:3;stroke-miterlimit:10;}
	.st2{fill:#6F4084;stroke:#FFFFFF;stroke-width:3;stroke-miterlimit:10;}
	.st3{fill:#9458A4;stroke:#FFFFFF;stroke-width:3;stroke-miterlimit:10;}
	.st4{fill:#C288B9;stroke:#FFFFFF;stroke-width:3;stroke-miterlimit:10;}
	.st5{fill:#D4A7CD;stroke:#FFFFFF;stroke-width:3;stroke-miterlimit:10;}
	.st6{fill:none;stroke:#FFFFFF;stroke-width:2;stroke-miterlimit:10;}
	.st7{display:none;}
</style>
<g id="Layer_1">
	<polygon class="st0" points="310.86,178.88 310.78,516.47 183.72,551.58 183.69,515.07 183.65,453.69 183.65,242.74 	"/>
	<polygon class="st1" points="438.14,515.07 437.67,515.07 437.69,538.58 310.89,516.45 310.78,516.47 310.86,178.88 310.89,178.86 
		438.14,242.74 	"/>
	<polygon class="st2" points="437.68,538.58 310.75,613.62 310.77,516.47 310.89,516.44 	"/>
	<polygon class="st3" points="310.77,516.47 310.75,613.62 183.72,551.58 	"/>
	<polygon class="st4" points="438.13,242.74 310.89,178.86 310.86,178.88 310.89,98.6 	"/>
	<polygon class="st5" points="310.89,98.6 310.86,178.88 183.65,242.74 	"/>
	<path class="st6" d="M183.65,242.74c42.36,42.36,84.73,84.73,127.09,127.09L183.65,242.74z"/>
	<line class="st6" x1="310.75" y1="479.32" x2="438.13" y2="242.74"/>
	<line class="st6" x1="310.89" y1="538.58" x2="437.68" y2="538.58"/>
	<line class="st6" x1="310.86" y1="178.88" x2="377.48" y2="174.03"/>
</g>
<g id="Layer_2" class="st7">
</g>
</svg>
